<?xml version="1.0" standalone="no"?>
<!DOCTYPE svg PUBLIC "-//W3C//DTD SVG 20010904//EN"
 "http://www.w3.org/TR/2001/REC-SVG-20010904/DTD/svg10.dtd">
<svg version="1.0" xmlns="http://www.w3.org/2000/svg"
 width="700.000000pt" height="700.000000pt" viewBox="0 0 700.000000 700.000000"
 preserveAspectRatio="xMidYMid meet">
<metadata>
Created by potrace 1.11, written by Peter Selinger 2001-2013
</metadata>
<g transform="translate(0.000000,700.000000) scale(0.100000,-0.100000)"
fill="#000000" stroke="none">
<path d="M1361 6009 c-84 -16 -159 -75 -203 -159 l-23 -45 0 -1445 0 -1445 21
-46 c27 -58 85 -116 143 -143 46 -21 52 -21 974 -24 l927 -2 0 -119 0 -118
-117 -7 c-262 -15 -579 -62 -806 -120 -318 -82 -529 -189 -615 -315 l-37 -53
0 -277 c0 -316 -2 -307 91 -396 58 -56 220 -145 342 -189 600 -214 1662 -259
2437 -105 356 71 608 170 741 292 92 84 94 89 94 395 0 259 0 263 -25 311
-109 216 -672 401 -1377 453 l-158 12 0 118 0 118 1010 0 c967 0 1012 1 1060
19 73 28 125 74 157 139 l28 57 0 320 0 320 -33 68 c-35 70 -76 109 -152 145
-32 16 -182 17 -1843 22 -1592 4 -1809 7 -1817 20 -5 8 -10 63 -10 121 0 90 3
108 18 122 17 15 132 17 1353 19 l1334 3 47 28 c29 17 57 44 73 71 22 38 25
54 25 146 0 91 -3 108 -24 144 -27 46 -65 77 -115 94 -25 9 -371 12 -1356 12
-1268 0 -1323 1 -1338 18 -26 28 -25 222 1 245 17 15 167 17 1818 19 l1799 3
52 24 c61 27 116 84 147 150 20 44 21 59 21 411 0 410 1 401 -74 483 -23 25
-65 55 -94 68 l-52 24 -2200 1 c-1210 1 -2220 -2 -2244 -7z m949 -549 c0 -73
-4 -120 -10 -120 -6 0 -10 47 -10 120 0 73 4 120 10 120 6 0 10 -47 10 -120z
m90 105 c0 -8 -4 -15 -10 -15 -5 0 -10 7 -10 15 0 8 5 15 10 15 6 0 10 -7 10
-15z m210 -105 c0 -100 -2 -120 -15 -120 -8 0 -15 4 -15 10 0 5 -13 1 -29 -8
-29 -16 -31 -16 -57 4 -37 27 -49 67 -35 114 15 50 58 71 96 46 l25 -16 0 45
c0 33 4 45 15 45 13 0 15 -20 15 -120z m-580 100 c0 -6 -27 -10 -60 -10 l-60
0 0 -35 0 -35 55 0 c42 0 55 -3 55 -15 0 -12 -13 -15 -55 -15 l-55 0 0 -45 0
-45 60 0 c33 0 60 -4 60 -10 0 -6 -32 -10 -75 -10 l-75 0 0 115 0 115 75 0
c43 0 75 -4 75 -10z m-400 -80 c41 -15 76 -34 78 -41 2 -9 -31 -26 -98 -50
-79 -29 -100 -33 -98 -21 2 8 33 25 75 40 40 14 70 29 67 33 -2 4 -36 18 -74
30 -42 14 -70 28 -70 37 0 15 5 14 120 -28z m548 24 c12 -8 22 -10 22 -5 0 6
7 11 15 11 12 0 15 -15 14 -77 0 -104 -15 -145 -56 -156 -39 -12 -83 -2 -83
18 0 11 5 12 25 5 42 -16 85 10 85 51 0 6 -8 6 -19 -1 -34 -18 -68 -12 -90 16
-36 46 -24 125 22 144 32 13 40 12 65 -6z m619 -7 c7 -7 15 -27 19 -45 l7 -32
-67 0 c-71 0 -83 -11 -49 -45 12 -13 28 -16 60 -12 54 6 61 -18 7 -26 -40 -7
-81 6 -100 31 -17 22 -18 93 -1 114 30 38 93 46 124 15z m-397 -72 c0 -50 -4
-85 -10 -85 -6 0 -10 35 -10 85 0 50 4 85 10 85 6 0 10 -35 10 -85z m998
-2780 c93 -78 128 -352 66 -527 -52 -147 -140 -200 -213 -127 l-31 31 0 285 0
285 39 39 c48 48 93 53 139 14z m-708 -480 c131 -25 274 -69 397 -121 l113
-48 2 -180 3 -181 195 -5 c217 -6 209 -3 196 -76 -13 -68 -89 -126 -206 -155
-93 -23 -311 -17 -460 14 -353 74 -676 238 -815 415 -132 167 -76 296 150 348
77 18 309 12 425 -11z m1190 -835 c0 -14 -5 -107 -12 -207 l-12 -182 -40 -5
c-98 -12 -377 -14 -575 -5 -118 5 -217 12 -219 14 -3 2 1 96 8 207 l13 203
418 0 419 0 0 -25z"/>
<path d="M2490 5464 c-14 -36 -12 -56 6 -82 32 -45 84 -19 84 43 0 43 -17 65
-51 65 -22 0 -32 -6 -39 -26z"/>
<path d="M2110 5471 c-16 -30 -12 -76 8 -94 35 -32 64 -18 77 36 15 57 -58
107 -85 58z"/>
<path d="M2702 5478 c-26 -26 -13 -38 38 -38 34 0 50 4 50 13 0 21 -22 37 -50
37 -14 0 -31 -5 -38 -12z"/>
</g>
</svg>
